<svg width="24" height="20" viewBox="0 0 24 20" fill="none" xmlns="http://www.w3.org/2000/svg">
<path d="M1.5 3.24194C2.8275 2.68694 4.731 2.08844 6.582 1.90244C8.577 1.70144 10.269 1.99694 11.25 3.03044V17.6494C9.8475 16.8544 8.07 16.7449 6.4305 16.9099C4.6605 17.0899 2.8755 17.6014 1.5 18.1264V3.24194ZM12.75 3.03044C13.731 1.99694 15.423 1.70144 17.418 1.90244C19.269 2.08844 21.1725 2.68694 22.5 3.24194V18.1264C21.123 17.6014 19.3395 17.0884 17.5695 16.9114C15.9285 16.7449 14.1525 16.8529 12.75 17.6494V3.03044ZM12 1.67444C10.5225 0.403943 8.3805 0.214943 6.4305 0.409943C4.1595 0.639443 1.8675 1.41794 0.4395 2.06744C0.308474 2.12704 0.197363 2.22307 0.119432 2.34409C0.0415 2.46511 3.98571e-05 2.606 0 2.74994L0 19.2499C3.4743e-05 19.3754 0.0315557 19.4989 0.0916756 19.6091C0.151796 19.7192 0.238593 19.8125 0.344116 19.8804C0.44964 19.9483 0.570517 19.9887 0.695675 19.9978C0.820833 20.0069 0.946271 19.9844 1.0605 19.9324C2.3835 19.3324 4.515 18.6109 6.5805 18.4024C8.694 18.1894 10.4655 18.5329 11.415 19.7179C11.4853 19.8055 11.5743 19.8762 11.6756 19.9248C11.7768 19.9734 11.8877 19.9986 12 19.9986C12.1123 19.9986 12.2232 19.9734 12.3244 19.9248C12.4257 19.8762 12.5147 19.8055 12.585 19.7179C13.5345 18.5329 15.306 18.1894 17.418 18.4024C19.485 18.6109 21.618 19.3324 22.9395 19.9324C23.0537 19.9844 23.1792 20.0069 23.3043 19.9978C23.4295 19.9887 23.5504 19.9483 23.6559 19.8804C23.7614 19.8125 23.8482 19.7192 23.9083 19.6091C23.9684 19.4989 24 19.3754 24 19.2499V2.74994C24 2.606 23.9585 2.46511 23.8806 2.34409C23.8026 2.22307 23.6915 2.12704 23.5605 2.06744C22.1325 1.41794 19.8405 0.639443 17.5695 0.409943C15.6195 0.213443 13.4775 0.403943 12 1.67444Z" fill="white"/>
</svg>
