<svg width="22" height="21" viewBox="0 0 22 21" fill="none" xmlns="http://www.w3.org/2000/svg">
<path fill-rule="evenodd" clip-rule="evenodd" d="M8.92682 7.30146e-07H13.0732C14.8965 -2.68072e-05 16.3663 -4.90993e-05 17.5223 0.155425C18.7225 0.316841 19.7331 0.662182 20.5354 1.4652C21.338 2.26743 21.6832 3.27785 21.8446 4.47771C22.0001 5.63368 22 7.10351 22 8.92683V9.07317C22 10.8965 22.0001 12.3663 21.8446 13.5223C21.6832 14.7221 21.338 15.7326 20.5354 16.5348C19.7331 17.3378 18.7225 17.6832 17.5223 17.8446C16.3663 18.0001 14.8965 18 13.0732 18H13C12.4477 18 12 17.5523 12 17C12 16.4477 12.4477 16 13 16C14.9138 16 16.2486 15.9979 17.2557 15.8624C18.2341 15.7308 18.7519 15.4902 19.1206 15.1212C19.4896 14.7525 19.7308 14.2341 19.8624 13.2557C19.9979 12.2486 20 10.9138 20 9C20 7.08622 19.9979 5.7514 19.8624 4.7443C19.7308 3.76595 19.4902 3.24808 19.1212 2.87941C18.7525 2.51042 18.2341 2.26916 17.2557 2.13758C16.2486 2.00213 14.9138 2 13 2H9C7.08622 2 5.7514 2.00213 4.7443 2.13758C3.76595 2.26916 3.24808 2.50982 2.87941 2.87881C2.51042 3.24748 2.26916 3.76595 2.13758 4.7443C2.00213 5.7514 2 7.08622 2 9C2 10.9138 2.00213 12.2486 2.13758 13.2557C2.26916 14.2341 2.50982 14.7519 2.87881 15.1206L2.87965 15.1214C3.29012 15.5325 3.88534 15.7843 5.09723 15.9027C5.6469 15.9564 6.04896 16.4456 5.99526 16.9952C5.94157 17.5449 5.45244 17.947 4.90277 17.8933C3.5149 17.7577 2.36028 17.4316 1.46482 16.535C0.662073 15.7328 0.316816 14.7223 0.155425 13.5223C-4.90993e-05 12.3663 -2.68072e-05 10.8965 7.30146e-07 9.07319V8.92682C-2.68072e-05 7.1035 -4.90993e-05 5.63368 0.155425 4.47771C0.316821 3.2777 0.662096 2.26718 1.46489 1.46489C2.26718 0.662096 3.2777 0.316821 4.47771 0.155425C5.63368 -4.90993e-05 7.1035 -2.68072e-05 8.92682 7.30146e-07Z" fill="#F5F5F5"/>
<path fill-rule="evenodd" clip-rule="evenodd" d="M7 8C7.55228 8 8 8.44772 8 9V9.01C8 9.56229 7.55228 10.01 7 10.01C6.44771 10.01 6 9.56229 6 9.01V9C6 8.44772 6.44771 8 7 8ZM11 8C11.5523 8 12 8.44772 12 9V9.01C12 9.56229 11.5523 10.01 11 10.01C10.4477 10.01 10 9.56229 10 9.01V9C10 8.44772 10.4477 8 11 8ZM15 8C15.5523 8 16 8.44772 16 9V9.01C16 9.56229 15.5523 10.01 15 10.01C14.4477 10.01 14 9.56229 14 9.01V9C14 8.44772 14.4477 8 15 8ZM5.58976 14.504C6.13982 14.5536 6.54554 15.0397 6.49596 15.5898L6.45386 16.0569C6.35784 17.109 6.29612 17.8058 6.30901 18.2858C6.31016 18.3284 6.31189 18.3669 6.31402 18.4014C6.36435 18.3846 6.42195 18.3639 6.48754 18.3384C6.98544 18.1449 7.67626 17.7879 8.69833 17.2574C9.99104 16.5866 11.5245 16 13 16C13.5523 16 14 16.4477 14 17C14 17.5523 13.5523 18 13 18C12.0035 18 10.8129 18.4134 9.61967 19.0326C9.61964 19.0326 9.61969 19.0326 9.61967 19.0326L9.55842 19.0644C8.6099 19.5567 7.82296 19.9652 7.21195 20.2026C6.89784 20.3247 6.56458 20.4286 6.2357 20.4596C5.89383 20.4919 5.48566 20.451 5.11238 20.2001C4.40999 19.7286 4.32456 18.8914 4.30973 18.3395C4.29323 17.7252 4.36795 16.9067 4.45649 15.937L4.50404 15.4102C4.55361 14.8602 5.03971 14.4545 5.58976 14.504Z" fill="#F5F5F5"/>
</svg>
