<svg width="24" height="24" viewBox="0 0 24 24" fill="none" xmlns="http://www.w3.org/2000/svg">
<path d="M10.5427 23.9101C8.40223 23.6326 6.19873 22.7146 4.59373 21.4298C0.980231 18.5468 -0.660019 13.9921 0.277481 9.46884C0.679481 7.51584 1.72648 5.46084 3.06673 3.98034C4.05403 2.86921 5.24465 1.95709 6.57448 1.29309C8.33998 0.398338 10.0275 -0.00366211 12.0195 -0.00366211C13.449 -0.00366211 14.598 0.183838 15.9142 0.633088C17.6434 1.22622 19.2144 2.20631 20.5074 3.49864C21.8004 4.79097 22.7812 6.36144 23.3752 8.09034C24.0787 10.1528 24.207 12.3481 23.7577 14.5238C23.3985 16.2428 22.4722 18.1763 21.3322 19.5743C20.8635 20.1526 19.785 21.1838 19.2187 21.6016C17.5247 22.8597 15.5324 23.6553 13.4377 23.9101C12.8205 23.9881 11.1405 23.9843 10.5435 23.9101H10.5427ZM13.8127 22.9066C16.7365 22.4166 19.3458 20.7852 21.0667 18.3713C23.094 15.5236 23.637 11.7031 22.4925 8.37159C22.2232 7.59009 21.555 6.28584 21.0667 5.59809C20.5237 4.82859 19.1797 3.48084 18.4065 2.93784C17.6565 2.40684 16.3792 1.76184 15.5077 1.47684C13.9346 0.954193 12.2641 0.791693 10.6198 1.00134C8.9754 1.211 7.39915 1.78744 6.00748 2.68809C4.69811 3.5482 3.57885 4.66747 2.71873 5.97684C1.81831 7.36776 1.24198 8.94324 1.03233 10.5869C0.822672 12.2305 0.985058 13.9002 1.50748 15.4726C1.79623 16.3433 2.44123 17.6251 2.96848 18.3751C3.51523 19.1446 4.85923 20.4923 5.62873 21.0353C6.32023 21.5198 7.62073 22.1873 8.40223 22.4611C10.1417 23.0521 12 23.2051 13.8127 22.9066ZM9.65623 18.8828C9.09549 18.7983 8.55753 18.6016 8.07448 18.3046C7.64098 18.0271 4.36723 14.8201 4.20748 14.5193C4.02373 14.1758 4.34398 13.5503 4.80148 13.3591L5.01598 13.2691L4.35598 12.5971C3.99298 12.2258 3.64873 11.8313 3.59398 11.7218C3.46498 11.4721 3.46123 10.9366 3.58198 10.6981C3.63298 10.6006 3.75373 10.4521 3.84748 10.3696C4.00798 10.2368 4.02298 10.1896 4.00798 9.85359C3.98848 9.55659 4.01548 9.43959 4.14448 9.21684C4.33198 8.89659 4.71898 8.68134 5.09773 8.67759C5.30848 8.67759 5.36323 8.65059 5.45323 8.49384C5.68798 8.08359 6.35923 7.93509 6.87148 8.18559L7.14898 8.31834L7.28548 8.18559C7.47298 8.01384 7.84798 7.86159 8.09398 7.86159C8.58598 7.86159 9.28123 8.42784 9.28123 8.82609C9.28123 9.30234 8.84773 9.38484 8.41798 8.99034C8.13298 8.72484 7.98823 8.69709 7.87123 8.88459C7.81273 8.97459 7.95298 9.14259 8.79298 9.99009C9.63298 10.8338 9.78523 11.0138 9.78523 11.1736C9.77859 11.296 9.72646 11.4116 9.63905 11.4976C9.55165 11.5836 9.43527 11.6339 9.31273 11.6386C9.16048 11.6386 8.91073 11.4196 7.75798 10.2713C6.58198 9.09909 6.36748 8.91159 6.27373 8.97084C6.01948 9.13134 6.10573 9.24834 7.48048 10.6268C8.22673 11.3768 8.84023 12.0406 8.84023 12.1036C8.84023 12.2326 8.72323 12.4711 8.62573 12.5333C8.54575 12.5685 8.45874 12.5846 8.37148 12.5806C8.21098 12.5843 7.96498 12.3616 6.65698 11.0573C5.34448 9.75234 5.10973 9.54159 5.01598 9.60009C4.75798 9.76434 4.84423 9.87759 6.34048 11.3813C7.15723 12.1981 7.84048 12.9286 7.85998 13.0066C7.90273 13.1476 7.80898 13.3936 7.68448 13.4791C7.60186 13.5142 7.51242 13.5304 7.42273 13.5263C7.26223 13.5263 7.05973 13.3508 5.97748 12.2686C4.93423 11.2253 4.69198 11.0108 4.55923 11.0228C4.18423 11.0656 4.31698 11.2336 6.25423 13.1753C7.93423 14.8591 8.14873 15.0976 8.14873 15.2731C8.15042 15.3375 8.13593 15.4014 8.10658 15.4587C8.07723 15.5161 8.03396 15.5652 7.98073 15.6016C7.67998 15.8401 7.56298 15.7853 6.80473 15.0511C6.41773 14.6798 6.01948 14.3206 5.91373 14.2538C5.72248 14.1368 5.23798 14.0858 5.14798 14.1796C5.11648 14.2066 5.83123 14.9611 6.73423 15.8551C8.23798 17.3431 8.40973 17.4961 8.85148 17.7068C9.25843 17.9095 9.70662 18.0156 10.1612 18.0169C10.6158 18.0182 11.0646 17.9146 11.4727 17.7143C12.7342 17.1128 13.434 15.6518 13.0897 14.3273C12.918 13.6673 12.7027 13.3508 11.8357 12.4561C10.836 11.4323 10.605 11.1511 10.359 10.6591C10.0852 10.1086 9.96823 9.57309 9.96823 8.90484C9.96823 8.18184 10.0425 7.85409 10.3627 7.17834C10.6672 6.53409 11.304 5.85834 11.9332 5.51034C13.1677 4.82259 14.793 4.88109 15.972 5.65134C16.2067 5.80359 17.0542 6.60084 18.1087 7.65909C19.6755 9.22959 19.8547 9.43284 19.8547 9.61209C19.8547 10.0381 19.5067 10.5106 19.1205 10.6081C18.9757 10.6471 19.0035 10.6861 19.6597 11.3543C20.0422 11.7413 20.3977 12.1591 20.4525 12.2881C20.6362 12.7298 20.5537 13.1588 20.2177 13.5106C20.046 13.6906 20.0227 13.7528 20.0182 14.1121C20.0145 14.4286 19.9792 14.5613 19.854 14.7413C19.7551 14.8878 19.6226 15.0085 19.4676 15.0934C19.3126 15.1783 19.1396 15.225 18.963 15.2296C18.7207 15.2296 18.6742 15.2528 18.5527 15.4366C18.279 15.8588 17.568 16.0066 17.1075 15.7336L16.8772 15.5971L16.713 15.7576C16.35 16.1056 15.7635 16.1521 15.3187 15.8671C14.9595 15.6406 14.694 15.3241 14.694 15.1246C14.694 14.9491 14.9482 14.6596 15.1042 14.6596C15.2527 14.6596 15.4522 14.7766 15.6787 14.9881C15.9052 15.2026 16.101 15.2026 16.1317 14.9843C16.1475 14.8673 15.96 14.6446 15.2017 13.8826C14.4045 13.0778 14.2522 12.8941 14.2522 12.7381C14.2504 12.651 14.2665 12.5645 14.2995 12.4838C14.3857 12.3548 14.628 12.2648 14.7757 12.3038C14.8537 12.3233 15.5137 12.9331 16.2367 13.6553C16.9635 14.3821 17.6002 14.9753 17.6587 14.9753C17.8192 14.9753 17.9242 14.8148 17.85 14.6783C17.8147 14.6161 17.2012 13.9868 16.4902 13.2758C15.3772 12.1666 15.1972 11.9596 15.1972 11.7953C15.1936 11.7069 15.2097 11.6188 15.2445 11.5373C15.3112 11.4398 15.5452 11.3228 15.678 11.3228C15.7365 11.3228 16.4707 12.0061 17.3107 12.8423C18.8497 14.3738 18.963 14.4593 19.1235 14.2058C19.182 14.1121 18.9712 13.8736 17.6662 12.5648C16.3185 11.2133 16.1392 11.0101 16.1392 10.8346C16.1392 10.7138 16.194 10.5886 16.2802 10.5106C16.5652 10.2413 16.6515 10.2961 18.0382 11.6746C19.3507 12.9833 19.4677 13.0688 19.6282 12.8191C19.6867 12.7253 19.4212 12.4366 17.7922 10.8031C16.0185 9.02184 15.8902 8.87709 15.8902 8.67009C15.8902 8.35734 16.0702 8.20884 16.4175 8.23284C16.4797 8.23659 16.8547 8.55309 17.2417 8.93184C17.6325 9.31059 18.054 9.66609 18.1792 9.72084C18.4252 9.82209 18.7102 9.83784 18.8317 9.75984C18.9487 9.68559 15.7065 6.49434 15.285 6.27159C14.9236 6.07653 14.5261 5.9575 14.117 5.92181C13.7078 5.88613 13.2957 5.93456 12.906 6.06411C12.5163 6.19366 12.1572 6.4016 11.8509 6.67513C11.5445 6.94865 11.2974 7.28198 11.1247 7.65459C10.9215 8.08809 10.8945 8.21709 10.8667 8.77584C10.8435 9.30309 10.863 9.46734 10.9762 9.80334C11.1795 10.4011 11.355 10.6471 12.2655 11.5771C13.2502 12.5851 13.4377 12.8153 13.6875 13.3546C14.391 14.8546 14.094 16.5893 12.9337 17.7451C12.051 18.6316 10.848 19.0456 9.65623 18.8821V18.8828Z" fill="white"/>
</svg>
