<svg width="22" height="22" viewBox="0 0 22 22" fill="none" xmlns="http://www.w3.org/2000/svg">
<path d="M6.22853 6.39999V2.8857C6.22853 2.26434 6.47537 1.66842 6.91474 1.22905C7.35411 0.789683 7.95003 0.542847 8.57139 0.542847H13.2571C13.8785 0.542847 14.4744 0.789683 14.9138 1.22905C15.3531 1.66842 15.6 2.26434 15.6 2.8857V6.39999H19.1142C19.7356 6.39999 20.3315 6.64683 20.7709 7.0862C21.2103 7.52557 21.4571 8.12148 21.4571 8.74285V19.2857C21.4571 19.9071 21.2103 20.503 20.7709 20.9424C20.3315 21.3817 19.7356 21.6286 19.1142 21.6286H2.71425C2.09288 21.6286 1.49697 21.3817 1.0576 20.9424C0.618227 20.503 0.371391 19.9071 0.371391 19.2857V8.74285C0.371391 8.12148 0.618227 7.52557 1.0576 7.0862C1.49697 6.64683 2.09288 6.39999 2.71425 6.39999H6.22853ZM2.71425 8.74285V19.2857H19.1142V8.74285H15.5976V12.2571H13.2571V8.74285H8.57139V12.2571H6.22853V8.74285H2.71425ZM8.57139 6.39999H13.2571V2.8857H8.57139V6.39999Z" fill="#09B451"/>
</svg>
