<svg width="20" height="20" viewBox="0 0 20 20" fill="none" xmlns="http://www.w3.org/2000/svg">
<path fill-rule="evenodd" clip-rule="evenodd" d="M1.75 4.75C1.47386 4.75 1.25 4.97386 1.25 5.25V14.75C1.25 15.0261 1.47386 15.25 1.75 15.25H18.25C18.5261 15.25 18.75 15.0261 18.75 14.75V5.25C18.75 4.97386 18.5261 4.75 18.25 4.75H1.75ZM0.25 5.25C0.25 4.42157 0.921573 3.75 1.75 3.75H18.25C19.0784 3.75 19.75 4.42157 19.75 5.25V14.75C19.75 15.5784 19.0784 16.25 18.25 16.25H1.75C0.921573 16.25 0.25 15.5784 0.25 14.75V5.25Z" fill="white"/>
<path fill-rule="evenodd" clip-rule="evenodd" d="M15.25 1.75C15.25 1.47386 15.0261 1.25 14.75 1.25L5.25 1.25C4.97386 1.25 4.75 1.47386 4.75 1.75L4.75 18.25C4.75 18.5261 4.97386 18.75 5.25 18.75H14.75C15.0261 18.75 15.25 18.5261 15.25 18.25L15.25 1.75ZM14.75 0.25C15.5784 0.25 16.25 0.921573 16.25 1.75V18.25C16.25 19.0784 15.5784 19.75 14.75 19.75H5.25C4.42157 19.75 3.75 19.0784 3.75 18.25L3.75 1.75C3.75 0.921573 4.42157 0.25 5.25 0.25L14.75 0.25Z" fill="white"/>
<path fill-rule="evenodd" clip-rule="evenodd" d="M9.20386 7.31914C9.2785 7.12676 9.46366 7 9.67 7H13.725C14.0011 7 14.225 7.22386 14.225 7.5C14.225 7.77614 14.0011 8 13.725 8H10.0123L8.19614 12.6809C8.12224 12.8713 7.93989 12.9977 7.73559 13C7.53129 13.0023 7.34616 12.88 7.26802 12.6912L5.81302 9.17623C5.7074 8.92109 5.82862 8.62863 6.08377 8.52302C6.33892 8.4174 6.63137 8.53862 6.73699 8.79377L7.71499 11.1564L9.20386 7.31914ZM10.2939 8.58581C10.5144 8.41953 10.8279 8.46346 10.9942 8.68393L11.83 9.79213L12.6658 8.68393C12.8321 8.46346 13.1456 8.41953 13.3661 8.58581C13.5865 8.75208 13.6305 9.0656 13.4642 9.28607L12.4563 10.6225L13.4642 11.9589C13.6305 12.1794 13.5865 12.4929 13.3661 12.6592C13.1456 12.8255 12.8321 12.7815 12.6658 12.5611L11.83 11.4529L10.9942 12.5611C10.8279 12.7815 10.5144 12.8255 10.2939 12.6592C10.0735 12.4929 10.0295 12.1794 10.1958 11.9589L11.2037 10.6225L10.1958 9.28607C10.0295 9.0656 10.0735 8.75208 10.2939 8.58581Z" fill="white"/>
</svg>
