<svg width="22" height="20" viewBox="0 0 22 20" fill="none" xmlns="http://www.w3.org/2000/svg">
<path d="M21.1484 7.65625H15.1484C15.0453 7.65625 14.9609 7.74062 14.9609 7.84375V8.96875C14.9609 9.07188 15.0453 9.15625 15.1484 9.15625H21.1484C21.2516 9.15625 21.3359 9.07188 21.3359 8.96875V7.84375C21.3359 7.74062 21.2516 7.65625 21.1484 7.65625ZM18.0078 10.8438H15.1484C15.0453 10.8438 14.9609 10.9281 14.9609 11.0312V12.1562C14.9609 12.2594 15.0453 12.3438 15.1484 12.3438H18.0078C18.1109 12.3438 18.1953 12.2594 18.1953 12.1562V11.0312C18.1953 10.9281 18.1109 10.8438 18.0078 10.8438ZM10.1867 5.55859H9.17188C9.02657 5.55859 8.90938 5.67578 8.90938 5.82109V11.6336C8.90938 11.718 8.94922 11.7953 9.01719 11.8445L12.507 14.3898C12.6242 14.4742 12.7883 14.4508 12.8727 14.3336L13.475 13.5109V13.5086C13.5594 13.3914 13.5336 13.2273 13.4164 13.143L10.4469 10.9961V5.82109C10.4492 5.67578 10.3297 5.55859 10.1867 5.55859Z" fill="#09B451"/>
<path d="M17.8625 13.7945H16.5078C16.3766 13.7945 16.2523 13.8625 16.182 13.975C15.8844 14.4461 15.5375 14.882 15.1391 15.2805C14.4523 15.9672 13.6531 16.5063 12.7648 16.8813C11.8437 17.2703 10.8664 17.4672 9.85859 17.4672C8.84844 17.4672 7.87109 17.2703 6.95234 16.8813C6.06406 16.5063 5.26484 15.9672 4.57813 15.2805C3.89141 14.5938 3.35234 13.7945 2.97734 12.9063C2.58828 11.9875 2.39141 11.0102 2.39141 10C2.39141 8.98986 2.58828 8.01486 2.97734 7.09377C3.35234 6.20549 3.89141 5.40627 4.57813 4.71955C5.26484 4.03283 6.06406 3.49377 6.95234 3.11877C7.87109 2.72971 8.85078 2.53283 9.85859 2.53283C10.8687 2.53283 11.8461 2.72971 12.7648 3.11877C13.6531 3.49377 14.4523 4.03283 15.1391 4.71955C15.5375 5.11799 15.8844 5.55393 16.182 6.02502C16.2523 6.13752 16.3766 6.20549 16.5078 6.20549H17.8625C18.0242 6.20549 18.1273 6.03674 18.0547 5.89377C16.5266 2.85393 13.4281 0.878144 9.96875 0.8383C4.90391 0.775019 0.696876 4.92111 0.687501 9.98127C0.678126 15.0508 4.78672 19.1641 9.85625 19.1641C13.3602 19.1641 16.5102 17.1813 18.0547 14.1063C18.1273 13.9633 18.0219 13.7945 17.8625 13.7945Z" fill="#09B451"/>
</svg>
