<svg width="20" height="18" viewBox="0 0 20 18" fill="none" xmlns="http://www.w3.org/2000/svg">
<path d="M7 0C5.67392 0 4.40215 0.526784 3.46447 1.46447C2.52678 2.40215 2 3.67392 2 5C2 6.32608 2.52678 7.59785 3.46447 8.53553C4.40215 9.47322 5.67392 10 7 10C8.32608 10 9.59785 9.47322 10.5355 8.53553C11.4732 7.59785 12 6.32608 12 5C12 3.67392 11.4732 2.40215 10.5355 1.46447C9.59785 0.526784 8.32608 0 7 0V0ZM4 5C4 4.20435 4.31607 3.44129 4.87868 2.87868C5.44129 2.31607 6.20435 2 7 2C7.79565 2 8.55871 2.31607 9.12132 2.87868C9.68393 3.44129 10 4.20435 10 5C10 5.79565 9.68393 6.55871 9.12132 7.12132C8.55871 7.68393 7.79565 8 7 8C6.20435 8 5.44129 7.68393 4.87868 7.12132C4.31607 6.55871 4 5.79565 4 5ZM14.908 5.218C14.6268 5.0747 14.3156 5 14 5V3C14.6315 3.00004 15.2541 3.14961 15.8167 3.43647C16.3793 3.72333 16.866 4.13933 17.2369 4.65042C17.6079 5.16151 17.8526 5.75317 17.9509 6.37699C18.0493 7.0008 17.9985 7.63905 17.8028 8.23948C17.6072 8.83992 17.2721 9.38549 16.825 9.83155C16.378 10.2776 15.8317 10.6115 15.2308 10.8058C14.6299 11.0002 13.9916 11.0495 13.368 10.9498C12.7444 10.8501 12.1533 10.6041 11.643 10.232L12.821 8.616C13.044 8.77832 13.2982 8.89274 13.5676 8.95209C13.837 9.01144 14.1157 9.01442 14.3863 8.96086C14.6569 8.90729 14.9134 8.79833 15.1399 8.64083C15.3663 8.48333 15.5578 8.28068 15.7021 8.04564C15.8465 7.8106 15.9407 7.54823 15.9787 7.27504C16.0168 7.00184 15.998 6.72373 15.9234 6.45816C15.8488 6.1926 15.7201 5.94534 15.5454 5.73191C15.3706 5.51849 15.1536 5.34352 14.908 5.218ZM17.998 18C17.9977 16.9397 17.5764 15.923 16.8267 15.1733C16.077 14.4236 15.0603 14.0023 14 14.002V12C15.5912 12.0003 17.1172 12.6325 18.2423 13.7577C19.3675 14.8828 19.9997 16.4088 20 18H17.998ZM14 18H12C12 16.6739 11.4732 15.4021 10.5355 14.4645C9.59785 13.5268 8.32608 13 7 13C5.67392 13 4.40215 13.5268 3.46447 14.4645C2.52678 15.4021 2 16.6739 2 18H0C0 16.1435 0.737498 14.363 2.05025 13.0503C3.36301 11.7375 5.14348 11 7 11C8.85652 11 10.637 11.7375 11.9497 13.0503C13.2625 14.363 14 16.1435 14 18V18Z" fill="white"/>
</svg>
