<svg width="17" height="13" viewBox="0 0 17 13" fill="none" xmlns="http://www.w3.org/2000/svg">
<path fill-rule="evenodd" clip-rule="evenodd" d="M2.06418 0.50176L8.31418 9.87676L14.5642 0.50176C14.6463 0.378645 14.7518 0.272902 14.8747 0.190568C14.9977 0.108235 15.1356 0.0509225 15.2807 0.0219042C15.4258 -0.00711414 15.5752 -0.0072683 15.7203 0.0214464C15.8655 0.0501611 16.0036 0.107184 16.1267 0.18926C16.2498 0.271336 16.3555 0.376858 16.4379 0.4998C16.5202 0.622742 16.5775 0.760697 16.6065 0.905789C16.6356 1.05088 16.6357 1.20027 16.607 1.34542C16.5783 1.49057 16.5213 1.62865 16.4392 1.75176L9.35418 12.3793C9.24003 12.5505 9.08538 12.6908 8.90395 12.7879C8.72253 12.885 8.51995 12.9358 8.31418 12.9358C8.10842 12.9358 7.90583 12.885 7.72441 12.7879C7.54299 12.6908 7.38834 12.5505 7.27418 12.3793L0.189181 1.75176C0.107105 1.62865 0.0500837 1.49057 0.021369 1.34542C-0.00734569 1.20027 -0.00719153 1.05088 0.0218268 0.905789C0.0508451 0.760697 0.108158 0.622742 0.190492 0.4998C0.272825 0.376858 0.378567 0.271336 0.501681 0.18926C0.624796 0.107184 0.762872 0.0501611 0.908024 0.0214464C1.05318 -0.0072683 1.20256 -0.00711414 1.34765 0.0219042C1.49274 0.0509225 1.6307 0.108235 1.75364 0.190568C1.87658 0.272902 1.98211 0.378645 2.06418 0.50176V0.50176Z" fill="#09B451"/>
</svg>
