<svg width="12" height="12" viewBox="0 0 12 12" fill="none" xmlns="http://www.w3.org/2000/svg">
<path d="M11.6567 10.2427L7.41413 6.00004L11.6567 1.7574C11.8443 1.56986 11.9496 1.31551 11.9496 1.05029C11.9496 0.785076 11.8443 0.530722 11.6567 0.343186C11.4692 0.15565 11.2148 0.050293 10.9496 0.050293C10.6844 0.050293 10.4301 0.15565 10.2425 0.343186L5.99992 4.58583L1.75728 0.343186C1.56974 0.15565 1.31539 0.050293 1.05017 0.050293C0.784955 0.050293 0.530601 0.15565 0.343065 0.343186C0.155528 0.530722 0.0501716 0.785076 0.0501716 1.05029C0.0501716 1.31551 0.155528 1.56986 0.343065 1.7574L4.58571 6.00004L0.343065 10.2427C0.155528 10.4302 0.0501709 10.6846 0.0501709 10.9498C0.0501709 11.215 0.155528 11.4694 0.343065 11.6569C0.530601 11.8444 0.784954 11.9498 1.05017 11.9498C1.31539 11.9498 1.56974 11.8444 1.75728 11.6569L5.99992 7.41425L10.2425 11.6569C10.4301 11.8444 10.6844 11.9498 10.9496 11.9498C11.2148 11.9498 11.4692 11.8444 11.6567 11.6569C11.8443 11.4694 11.9496 11.215 11.9496 10.9498C11.9496 10.6846 11.8443 10.4302 11.6567 10.2427Z" fill="black"/>
</svg>
