<svg width="23" height="23" viewBox="0 0 23 23" fill="none" xmlns="http://www.w3.org/2000/svg">
<path fill-rule="evenodd" clip-rule="evenodd" d="M7.41715 0.991293C8.59015 0.937293 8.96415 0.925293 11.9521 0.925293C14.9401 0.925293 15.3141 0.938293 16.4861 0.991293C17.6581 1.04429 18.4581 1.23129 19.1581 1.50229C19.8911 1.77929 20.5561 2.21229 21.1061 2.77229C21.6661 3.32129 22.0982 3.98529 22.3741 4.71929C22.6461 5.41929 22.8321 6.21929 22.8861 7.38929C22.9401 8.56429 22.9521 8.93829 22.9521 11.9253C22.9521 14.9133 22.9391 15.2873 22.8861 16.4603C22.8331 17.6303 22.6461 18.4303 22.3741 19.1303C22.0981 19.8644 21.6654 20.5295 21.1061 21.0793C20.5561 21.6393 19.8911 22.0713 19.1581 22.3473C18.4581 22.6193 17.6581 22.8053 16.4881 22.8593C15.3141 22.9133 14.9401 22.9253 11.9521 22.9253C8.96415 22.9253 8.59015 22.9123 7.41715 22.8593C6.24715 22.8063 5.44715 22.6193 4.74715 22.3473C4.01307 22.0713 3.34797 21.6385 2.79815 21.0793C2.23853 20.53 1.80546 19.8652 1.52915 19.1313C1.25815 18.4313 1.07215 17.6313 1.01815 16.4613C0.964148 15.2863 0.952148 14.9123 0.952148 11.9253C0.952148 8.93729 0.965148 8.56329 1.01815 7.39129C1.07115 6.21929 1.25815 5.41929 1.52915 4.71929C1.80587 3.98537 2.23927 3.32061 2.79915 2.77129C3.34819 2.21179 4.01262 1.77874 4.74615 1.50229C5.44615 1.23129 6.24615 1.04529 7.41615 0.991293H7.41715ZM16.3971 2.97129C15.2371 2.91829 14.8891 2.90729 11.9521 2.90729C9.01515 2.90729 8.66715 2.91829 7.50715 2.97129C6.43415 3.02029 5.85215 3.19929 5.46415 3.35029C4.95115 3.55029 4.58415 3.78729 4.19915 4.17229C3.83419 4.52734 3.55333 4.95958 3.37715 5.43729C3.22615 5.82529 3.04715 6.40729 2.99815 7.48029C2.94515 8.64029 2.93415 8.98829 2.93415 11.9253C2.93415 14.8623 2.94515 15.2103 2.99815 16.3703C3.04715 17.4433 3.22615 18.0253 3.37715 18.4133C3.55315 18.8903 3.83415 19.3233 4.19915 19.6783C4.55415 20.0433 4.98715 20.3243 5.46415 20.5003C5.85215 20.6513 6.43415 20.8303 7.50715 20.8793C8.66715 20.9323 9.01415 20.9433 11.9521 20.9433C14.8901 20.9433 15.2371 20.9323 16.3971 20.8793C17.4701 20.8303 18.0521 20.6513 18.4401 20.5003C18.9531 20.3003 19.3201 20.0633 19.7051 19.6783C20.0701 19.3233 20.3511 18.8903 20.5271 18.4133C20.6781 18.0253 20.8571 17.4433 20.9061 16.3703C20.9591 15.2103 20.9701 14.8623 20.9701 11.9253C20.9701 8.98829 20.9591 8.64029 20.9061 7.48029C20.8571 6.40729 20.6781 5.82529 20.5271 5.43729C20.3271 4.92429 20.0901 4.55729 19.7051 4.17229C19.3501 3.80736 18.9179 3.5265 18.4401 3.35029C18.0521 3.19929 17.4701 3.02029 16.3971 2.97129ZM10.5471 15.3163C11.3318 15.6429 12.2055 15.687 13.0191 15.441C13.8326 15.195 14.5355 14.6742 15.0078 13.9675C15.48 13.2609 15.6922 12.4122 15.6082 11.5664C15.5242 10.7206 15.1492 9.93027 14.5471 9.33029C14.1634 8.94677 13.6994 8.65311 13.1885 8.47044C12.6776 8.28777 12.1326 8.22065 11.5926 8.27391C11.0527 8.32716 10.5313 8.49947 10.066 8.77842C9.6006 9.05738 9.20289 9.43604 8.90145 9.88714C8.60001 10.3383 8.40234 10.8506 8.32266 11.3873C8.24299 11.9239 8.2833 12.4716 8.44069 12.9908C8.59808 13.51 8.86863 13.9879 9.23287 14.39C9.59711 14.7921 10.046 15.1085 10.5471 15.3163ZM7.95415 7.92729C8.47917 7.40227 9.10247 6.9858 9.78845 6.70165C10.4744 6.41751 11.2097 6.27127 11.9521 6.27127C12.6946 6.27127 13.4299 6.41751 14.1159 6.70165C14.8018 6.9858 15.4251 7.40227 15.9501 7.92729C16.4752 8.45232 16.8916 9.07561 17.1758 9.76159C17.4599 10.4476 17.6062 11.1828 17.6062 11.9253C17.6062 12.6678 17.4599 13.403 17.1758 14.089C16.8916 14.775 16.4752 15.3983 15.9501 15.9233C14.8898 16.9836 13.4517 17.5793 11.9521 17.5793C10.4526 17.5793 9.01448 16.9836 7.95415 15.9233C6.89381 14.863 6.29812 13.4248 6.29812 11.9253C6.29812 10.4258 6.89381 8.98763 7.95415 7.92729ZM18.8601 7.11329C18.9903 6.99056 19.0944 6.84297 19.1665 6.67927C19.2385 6.51556 19.277 6.33906 19.2796 6.16022C19.2822 5.98138 19.2489 5.80384 19.1816 5.6381C19.1144 5.47237 19.0146 5.3218 18.8881 5.19533C18.7616 5.06886 18.6111 4.96905 18.4453 4.90181C18.2796 4.83457 18.1021 4.80127 17.9232 4.80388C17.7444 4.80648 17.5679 4.84495 17.4042 4.91699C17.2405 4.98903 17.0929 5.09319 16.9701 5.22329C16.7315 5.47632 16.6008 5.81241 16.6059 6.16022C16.6109 6.50803 16.7513 6.84017 16.9973 7.08614C17.2433 7.3321 17.5754 7.47252 17.9232 7.47759C18.271 7.48266 18.6071 7.35198 18.8601 7.11329Z" fill="#0AC75A" fill-opacity="0.8"/>
</svg>
