<svg width="20" height="21" viewBox="0 0 20 21" fill="none" xmlns="http://www.w3.org/2000/svg">
<path fill-rule="evenodd" clip-rule="evenodd" d="M8.02739 7.89429H11.5645V9.74429C12.0741 8.68029 13.3807 7.72429 15.3436 7.72429C19.1064 7.72429 19.9998 9.84229 19.9998 13.7283V20.9253H16.1902V14.6133C16.1902 12.4003 15.6807 11.1523 14.3836 11.1523C12.5845 11.1523 11.8369 12.4973 11.8369 14.6123V20.9253H8.02739V7.89429ZM1.49501 20.7553H5.30453V7.72429H1.49501V20.7553ZM5.85024 3.47529C5.85039 3.81057 5.78706 4.14253 5.66395 4.45188C5.54083 4.76123 5.36039 5.04181 5.1331 5.27729C4.67253 5.75792 4.04911 6.02695 3.39977 6.02529C2.75157 6.02484 2.12959 5.75649 1.66834 5.27829C1.44187 5.04201 1.26204 4.76112 1.13914 4.45172C1.01625 4.14233 0.9527 3.81052 0.952148 3.47529C0.952148 2.79829 1.20929 2.15029 1.66929 1.67229C2.13013 1.19345 2.75238 0.924994 3.40072 0.925293C4.05024 0.925293 4.6731 1.19429 5.1331 1.67229C5.59215 2.15029 5.85024 2.79829 5.85024 3.47529Z" fill="#0AC75A" fill-opacity="0.8"/>
</svg>
