<svg width="16" height="15" viewBox="0 0 16 15" fill="none" xmlns="http://www.w3.org/2000/svg">
<path d="M14.9627 5.20682L10.4996 4.55819L8.50448 0.513459C8.44999 0.402716 8.36034 0.313068 8.2496 0.258576C7.97186 0.121466 7.63436 0.235724 7.49549 0.513459L5.50038 4.55819L1.03729 5.20682C0.914245 5.2244 0.801745 5.2824 0.715612 5.37029C0.611482 5.47732 0.554102 5.62131 0.55608 5.77062C0.558057 5.91993 0.619231 6.06235 0.726159 6.16658L3.95526 9.31483L3.19237 13.7603C3.17448 13.8637 3.18592 13.9701 3.2254 14.0673C3.26488 14.1646 3.33082 14.2488 3.41573 14.3105C3.50065 14.3722 3.60114 14.4088 3.70583 14.4163C3.81051 14.4237 3.91519 14.4017 4.00799 14.3527L7.99999 12.2539L11.992 14.3527C12.101 14.4107 12.2275 14.4301 12.3488 14.409C12.6547 14.3562 12.8603 14.0662 12.8076 13.7603L12.0447 9.31483L15.2738 6.16658C15.3617 6.08045 15.4197 5.96795 15.4373 5.8449C15.4848 5.53729 15.2703 5.25252 14.9627 5.20682ZM10.6859 8.87186L11.3205 12.5685L7.99999 10.8248L4.67948 12.5703L5.31405 8.87362L2.62811 6.25447L6.34061 5.71483L7.99999 2.35213L9.65936 5.71483L13.3719 6.25447L10.6859 8.87186Z" fill="#09B451"/>
</svg>
