<svg width="21" height="22" viewBox="0 0 21 22" fill="none" xmlns="http://www.w3.org/2000/svg">
<path d="M10.4762 0C4.6909 0 0 4.92545 0 11C0 17.0746 4.6909 22 10.4762 22C16.2615 22 20.9524 17.0746 20.9524 11C20.9524 4.92545 16.2615 0 10.4762 0ZM15.5108 8.29174C15.5179 8.40714 15.5179 8.52746 15.5179 8.64531C15.5179 12.2498 12.9035 16.4018 8.12606 16.4018C6.65285 16.4018 5.2872 15.9525 4.13669 15.179C4.34715 15.2036 4.54826 15.2134 4.76339 15.2134C5.97938 15.2134 7.09715 14.7812 7.9881 14.0496C6.84694 14.025 5.88818 13.2393 5.5608 12.1589C5.96067 12.2203 6.32079 12.2203 6.73236 12.1098C6.14477 11.9845 5.61663 11.6494 5.23767 11.1615C4.8587 10.6736 4.65229 10.0631 4.65349 9.43348V9.39911C4.99724 9.6029 5.40179 9.72812 5.82504 9.74531C5.46923 9.49633 5.17743 9.159 4.97551 8.76324C4.7736 8.36749 4.66781 7.92553 4.66752 7.47656C4.66752 6.9683 4.79379 6.50424 5.02062 6.10156C5.67282 6.94458 6.48666 7.63405 7.40925 8.12518C8.33184 8.61631 9.34254 8.8981 10.3756 8.95223C10.0085 7.09844 11.3274 5.59821 12.9128 5.59821C13.6611 5.59821 14.3346 5.92723 14.8093 6.45759C15.3963 6.34219 15.9575 6.11138 16.4579 5.80201C16.2638 6.43304 15.8569 6.96585 15.3168 7.30223C15.8406 7.2433 16.3457 7.09107 16.8134 6.87746C16.4602 7.42254 16.0183 7.90625 15.5108 8.29174Z" fill="#0AC75A" fill-opacity="0.8"/>
</svg>
